<?xml version="1.0"?>
<svg xmlns:rdf="http://www.w3.org/1999/02/22-rdf-syntax-ns#" xmlns="http://www.w3.org/2000/svg" xmlns:cc="http://web.resource.org/cc/" xmlns:dc="http://purl.org/dc/elements/1.1/" xmlns:svg="http://www.w3.org/2000/svg" id="svg4458" viewBox="0 0 235 256.22" version="1.0">
  <g id="layer1" stroke-linejoin="round" stroke="#000" transform="translate(-267.98 -294.41)" fill="#fff">
    <path id="path3422" stroke-width="10.857" d="m404.83 299.84c-14.6 0-27.26 7.87-34.35 19.49-6.57-4.64-14.54-7.45-23.19-7.45-22.28 0-40.37 18.09-40.37 40.37 0 1.63 0.3 3.2 0.49 4.78-19.23 3.07-34 19.59-34 39.68 0 19.91 14.48 36.39 33.46 39.68-0.38 2.23-0.69 4.51-0.69 6.86 0 22.27 18.09 40.31 40.37 40.31 10.91 0 20.76-4.35 28.03-11.4 7.4 8.81 18.34 14.56 30.74 14.56 17.69 0 32.56-11.49 38-27.34 4.36 1.61 9 2.67 13.92 2.67 22.27 0 40.31-18.1 40.31-40.37 0-11.2-4.56-21.31-11.94-28.62 3.73-6.11 6.02-13.2 6.02-20.88 0-22.27-18.09-40.31-40.36-40.31-2.35 0-4.63 0.25-6.86 0.64-3.6-18.6-19.94-32.67-39.58-32.67z"/>
    <path id="path3424" d="m183.85 484.93a9.5392 9.5392 0 1 1 -19.08 0 9.5392 9.5392 0 1 1 19.08 0z" stroke-width="4.7987" transform="matrix(1.5792 0 0 1.5792 170.62 -261.43)"/>
    <path id="path3426" d="m183.85 484.93a9.5392 9.5392 0 1 1 -19.08 0 9.5392 9.5392 0 1 1 19.08 0z" stroke-width="5.4028" transform="matrix(1.0961 0 0 1.0961 274.91 5.6957)"/>
  </g>
  <metadata>
    <rdf:RDF>
      <cc:Work>
        <dc:format>image/svg+xml</dc:format>
        <dc:type rdf:resource="http://purl.org/dc/dcmitype/StillImage"/>
        <cc:license rdf:resource="http://creativecommons.org/licenses/publicdomain/"/>
        <dc:publisher>
          <cc:Agent rdf:about="http://openclipart.org/">
            <dc:title>Openclipart</dc:title>
          </cc:Agent>
        </dc:publisher>
        <dc:title>thought cloud</dc:title>
        <dc:date>2010-04-03T07:00:08</dc:date>
        <dc:description>Graphics by Jon Phillips. From OCAL 0.18 release.</dc:description>
        <dc:source>http://openclipart.org/detail/36367/thought-cloud-by-anonymous-36367</dc:source>
        <dc:creator>
          <cc:Agent>
            <dc:title>Anonymous</dc:title>
          </cc:Agent>
        </dc:creator>
        <dc:subject>
          <rdf:Bag>
            <rdf:li>balloon</rdf:li>
            <rdf:li>bubble</rdf:li>
            <rdf:li>clip art</rdf:li>
            <rdf:li>clipart</rdf:li>
            <rdf:li>cloud</rdf:li>
            <rdf:li>comic</rdf:li>
            <rdf:li>thinking</rdf:li>
            <rdf:li>thought</rdf:li>
          </rdf:Bag>
        </dc:subject>
      </cc:Work>
      <cc:License rdf:about="http://creativecommons.org/licenses/publicdomain/">
        <cc:permits rdf:resource="http://creativecommons.org/ns#Reproduction"/>
        <cc:permits rdf:resource="http://creativecommons.org/ns#Distribution"/>
        <cc:permits rdf:resource="http://creativecommons.org/ns#DerivativeWorks"/>
      </cc:License>
    </rdf:RDF>
  </metadata>
</svg>
