<?xml version="1.0"?>
<svg xmlns:rdf="http://www.w3.org/1999/02/22-rdf-syntax-ns#" xmlns="http://www.w3.org/2000/svg" xmlns:cc="http://web.resource.org/cc/" xmlns:dc="http://purl.org/dc/elements/1.1/" xmlns:svg="http://www.w3.org/2000/svg" id="svg2134" viewBox="0 0 194.61 184.79" version="1.0">
  <g id="layer1" transform="translate(-1831.7 -1228.6)">
    <path id="path4847" d="m1904.8 1230.7c-8.6 0.4-17.8 6.7-21.5 18-8.3-11.5-27.7-0.5-20.9 13.5-29.3-8.4-49 47.6 7.3 44.7-35.9 30.6 24.6 57.8 49.8 28.3 1.6 19.3 26.4 21.7 34.5 4.5 8 15.6 32.9 13.7 35.6-10.7 10.7 12.7 29.9-3.5 21-15.9 14 1.4 20.8-18.9 2.2-23.1 13.5-15-8.9-32.7-23.2-20.4 7.8-20.5-12.2-35.6-31.1-20.9 4.2-17.6-22.8-27.4-36.2-5.1-3-9.1-10.1-13.2-17.5-12.9zm-5.3 124.4c-2 0.1-4 0.4-5.9 0.9-8.2 2.4-12 8.9-8.4 14.5 3.5 5.5 13 8.1 21.2 5.7s12-8.9 8.4-14.4c-2.7-4.3-8.9-6.8-15.3-6.7zm15.5 29.9c-1.3 0.1-2.5 0.3-3.7 0.7h-0.1c-5.9 1.8-8.7 6.5-6.1 10.7 2.6 4.1 9.5 6 15.5 4.2s8.7-6.6 6.2-10.7c-2.1-3.3-6.9-5.2-11.8-4.9zm21.3 19.4c-0.7 0-1.4 0.1-2 0.2l-0.1 0.1c-2.7 0.7-4 2.7-2.8 4.4 1.2 1.8 4.4 2.6 7.2 1.8 2.8-0.7 4-2.7 2.8-4.4-0.9-1.4-2.9-2.2-5.1-2.1z" fill-rule="evenodd" stroke="#000" stroke-width="4.2733" fill="#fff"/>
  </g>
  <metadata>
    <rdf:RDF>
      <cc:Work>
        <dc:format>image/svg+xml</dc:format>
        <dc:type rdf:resource="http://purl.org/dc/dcmitype/StillImage"/>
        <cc:license rdf:resource="http://creativecommons.org/licenses/publicdomain/"/>
        <dc:publisher>
          <cc:Agent rdf:about="http://openclipart.org/">
            <dc:title>Openclipart</dc:title>
          </cc:Agent>
        </dc:publisher>
        <dc:title>comic clouds 8</dc:title>
        <dc:date>2006-12-26T00:00:00</dc:date>
        <dc:description>bubble, clip art, clipart, comic, thought, </dc:description>
        <dc:source>http://openclipart.org/detail/3486/-by--3486</dc:source>
        <dc:creator>
          <cc:Agent>
            <dc:title>SRD</dc:title>
          </cc:Agent>
        </dc:creator>
        <dc:subject>
          <rdf:Bag>
            <rdf:li>bubble</rdf:li>
            <rdf:li>clip art</rdf:li>
            <rdf:li>clipart</rdf:li>
            <rdf:li>comic</rdf:li>
            <rdf:li>thought</rdf:li>
          </rdf:Bag>
        </dc:subject>
      </cc:Work>
      <cc:License rdf:about="http://creativecommons.org/licenses/publicdomain/">
        <cc:permits rdf:resource="http://creativecommons.org/ns#Reproduction"/>
        <cc:permits rdf:resource="http://creativecommons.org/ns#Distribution"/>
        <cc:permits rdf:resource="http://creativecommons.org/ns#DerivativeWorks"/>
      </cc:License>
    </rdf:RDF>
  </metadata>
</svg>
